name rise30.3154peak39.0474fall46.5389.mot
datacolumns 19
datarows 30
range 23.14991300000000 23.19824600000000
endheader
time	ground_force1_vx	ground_force1_vy	ground_force1_vz	ground_force1_px	ground_force1_py	ground_force1_pz	ground_force2_vx	ground_force2_vy	ground_force2_vz	ground_force2_px	ground_force2_py	ground_force2_pz	ground_torque1_x	ground_torque1_y	ground_torque1_z	ground_torque2_x	ground_torque2_y	ground_torque2_z	
23.14991300000000	59.45401200000000	704.13858400000004	48.37748100000000	0.38604200000000	0.00000000000000	0.07980300000000	-0.82674200000000	16.78923700000000	1.81413700000000	0.00000000000000	0.00000000000000	0.00000000000000	0.00000000000000	26.38686200000000	0.00000000000000	0.00000000000000	-0.04987100000000	0.00000000000000	
23.15158100000000	58.74991000000000	706.91415600000005	48.45550400000000	0.38447500000000	0.00000000000000	0.07984000000000	-0.38061100000000	11.65369100000000	1.33536100000000	0.00000000000000	0.00000000000000	0.00000000000000	0.00000000000000	26.37950100000000	0.00000000000000	0.00000000000000	-0.01133700000000	0.00000000000000	
23.15324900000000	58.04856400000000	709.66188299999999	48.54993600000000	0.38293400000000	0.00000000000000	0.07987900000000	-0.04761100000000	7.26349700000000	0.90535300000000	0.00000000000000	0.00000000000000	0.00000000000000	0.00000000000000	26.38649900000000	0.00000000000000	0.00000000000000	0.01569400000000	0.00000000000000	
23.15491800000000	57.35071800000000	712.38010499999996	48.66067600000000	0.38142200000000	0.00000000000000	0.07991900000000	0.18340600000000	3.65602900000000	0.53423500000000	0.00000000000000	0.00000000000000	0.00000000000000	0.00000000000000	26.40779700000000	0.00000000000000	0.00000000000000	0.03272300000000	0.00000000000000	
23.15658300000000	56.65703800000000	715.06700200000000	48.78747800000000	0.37993900000000	0.00000000000000	0.07995900000000	0.00000000000000	0.00000000000000	0.00000000000000	0.00000000000000	0.00000000000000	0.00000000000000	0.00000000000000	26.44323100000000	0.00000000000000	0.00000000000000	0.00000000000000	0.00000000000000	
23.15824700000000	55.96811300000000	717.72061199999996	48.92995500000000	0.37848800000000	0.00000000000000	0.08000000000000	0.00000000000000	0.00000000000000	0.00000000000000	0.00000000000000	0.00000000000000	0.00000000000000	0.00000000000000	26.49253100000000	0.00000000000000	0.00000000000000	0.00000000000000	0.00000000000000	
23.15991100000000	55.28446100000000	720.33884200000000	49.08758600000000	0.37706900000000	0.00000000000000	0.08004100000000	0.00000000000000	0.00000000000000	0.00000000000000	0.00000000000000	0.00000000000000	0.00000000000000	0.00000000000000	26.55533000000000	0.00000000000000	0.00000000000000	0.00000000000000	0.00000000000000	
23.16158500000000	54.60652500000000	722.91948600000001	49.25971900000000	0.37568300000000	0.00000000000000	0.08008200000000	0.00000000000000	0.00000000000000	0.00000000000000	0.00000000000000	0.00000000000000	0.00000000000000	0.00000000000000	26.63116600000000	0.00000000000000	0.00000000000000	0.00000000000000	0.00000000000000	
23.16324700000000	53.93468200000000	725.46023800000000	49.44558300000000	0.37433200000000	0.00000000000000	0.08012300000000	0.00000000000000	0.00000000000000	0.00000000000000	0.00000000000000	0.00000000000000	0.00000000000000	0.00000000000000	26.71949100000000	0.00000000000000	0.00000000000000	0.00000000000000	0.00000000000000	
23.16491100000000	53.26924400000000	727.95871299999999	49.64429300000000	0.37301600000000	0.00000000000000	0.08016400000000	0.00000000000000	0.00000000000000	0.00000000000000	0.00000000000000	0.00000000000000	0.00000000000000	0.00000000000000	26.81967400000000	0.00000000000000	0.00000000000000	0.00000000000000	0.00000000000000	
23.16658200000000	52.61045700000000	730.41245500000002	49.85485700000000	0.37173600000000	0.00000000000000	0.08020500000000	0.00000000000000	0.00000000000000	0.00000000000000	0.00000000000000	0.00000000000000	0.00000000000000	0.00000000000000	26.93100900000000	0.00000000000000	0.00000000000000	0.00000000000000	0.00000000000000	
23.16824600000000	51.95851200000000	732.81896099999994	50.07618900000000	0.37049200000000	0.00000000000000	0.08024500000000	0.00000000000000	0.00000000000000	0.00000000000000	0.00000000000000	0.00000000000000	0.00000000000000	0.00000000000000	27.05272000000000	0.00000000000000	0.00000000000000	0.00000000000000	0.00000000000000	
23.16991500000000	51.31354000000000	735.17569400000002	50.30711400000000	0.36928400000000	0.00000000000000	0.08028400000000	0.00000000000000	0.00000000000000	0.00000000000000	0.00000000000000	0.00000000000000	0.00000000000000	0.00000000000000	27.18397000000000	0.00000000000000	0.00000000000000	0.00000000000000	0.00000000000000	
23.17158400000000	50.67562300000000	737.48009500000001	50.54637700000000	0.36811300000000	0.00000000000000	0.08032300000000	0.00000000000000	0.00000000000000	0.00000000000000	0.00000000000000	0.00000000000000	0.00000000000000	0.00000000000000	27.32386300000000	0.00000000000000	0.00000000000000	0.00000000000000	0.00000000000000	
23.17324500000000	50.04479400000000	739.72960399999999	50.79265700000000	0.36697800000000	0.00000000000000	0.08036000000000	0.00000000000000	0.00000000000000	0.00000000000000	0.00000000000000	0.00000000000000	0.00000000000000	0.00000000000000	27.47145700000000	0.00000000000000	0.00000000000000	0.00000000000000	0.00000000000000	
23.17492000000000	49.42104000000000	741.92167300000006	51.04457500000000	0.36587900000000	0.00000000000000	0.08039600000000	0.00000000000000	0.00000000000000	0.00000000000000	0.00000000000000	0.00000000000000	0.00000000000000	0.00000000000000	27.62576300000000	0.00000000000000	0.00000000000000	0.00000000000000	0.00000000000000	
23.17658000000000	48.80430900000000	744.05378199999996	51.30070200000000	0.36481700000000	0.00000000000000	0.08043100000000	0.00000000000000	0.00000000000000	0.00000000000000	0.00000000000000	0.00000000000000	0.00000000000000	0.00000000000000	27.78576000000000	0.00000000000000	0.00000000000000	0.00000000000000	0.00000000000000	
23.17825200000000	48.19451200000000	746.12344900000005	51.55957100000000	0.36378900000000	0.00000000000000	0.08046400000000	0.00000000000000	0.00000000000000	0.00000000000000	0.00000000000000	0.00000000000000	0.00000000000000	0.00000000000000	27.95039700000000	0.00000000000000	0.00000000000000	0.00000000000000	0.00000000000000	
23.17991400000000	47.59152600000000	748.12824899999998	51.81968900000000	0.36279700000000	0.00000000000000	0.08049600000000	0.00000000000000	0.00000000000000	0.00000000000000	0.00000000000000	0.00000000000000	0.00000000000000	0.00000000000000	28.11859900000000	0.00000000000000	0.00000000000000	0.00000000000000	0.00000000000000	
23.18158100000000	46.99520300000000	750.06582700000001	52.07954500000000	0.36183800000000	0.00000000000000	0.08052600000000	0.00000000000000	0.00000000000000	0.00000000000000	0.00000000000000	0.00000000000000	0.00000000000000	0.00000000000000	28.28927700000000	0.00000000000000	0.00000000000000	0.00000000000000	0.00000000000000	
23.18325300000000	46.40536800000000	751.93390699999998	52.33761800000000	0.36091300000000	0.00000000000000	0.08055400000000	0.00000000000000	0.00000000000000	0.00000000000000	0.00000000000000	0.00000000000000	0.00000000000000	0.00000000000000	28.46133100000000	0.00000000000000	0.00000000000000	0.00000000000000	0.00000000000000	
23.18491500000000	45.82182500000000	753.73030600000004	52.59239400000000	0.36002000000000	0.00000000000000	0.08057900000000	0.00000000000000	0.00000000000000	0.00000000000000	0.00000000000000	0.00000000000000	0.00000000000000	0.00000000000000	28.63366100000000	0.00000000000000	0.00000000000000	0.00000000000000	0.00000000000000	
23.18658500000000	45.24436300000000	755.45294600000000	52.84236600000000	0.35915800000000	0.00000000000000	0.08060300000000	0.00000000000000	0.00000000000000	0.00000000000000	0.00000000000000	0.00000000000000	0.00000000000000	0.00000000000000	28.80516700000000	0.00000000000000	0.00000000000000	0.00000000000000	0.00000000000000	
23.18824600000000	44.67275700000000	757.09986200000003	53.08605300000000	0.35832600000000	0.00000000000000	0.08062400000000	0.00000000000000	0.00000000000000	0.00000000000000	0.00000000000000	0.00000000000000	0.00000000000000	0.00000000000000	28.97476100000000	0.00000000000000	0.00000000000000	0.00000000000000	0.00000000000000	
23.18991800000000	44.10677400000000	758.66921600000001	53.32200100000000	0.35752300000000	0.00000000000000	0.08064300000000	0.00000000000000	0.00000000000000	0.00000000000000	0.00000000000000	0.00000000000000	0.00000000000000	0.00000000000000	29.14137000000000	0.00000000000000	0.00000000000000	0.00000000000000	0.00000000000000	
23.19158500000000	43.54617400000000	760.15929900000003	53.54879700000000	0.35674700000000	0.00000000000000	0.08066000000000	0.00000000000000	0.00000000000000	0.00000000000000	0.00000000000000	0.00000000000000	0.00000000000000	0.00000000000000	29.30394200000000	0.00000000000000	0.00000000000000	0.00000000000000	0.00000000000000	
23.19324900000000	42.99071500000000	761.56854699999997	53.76507500000000	0.35599700000000	0.00000000000000	0.08067400000000	0.00000000000000	0.00000000000000	0.00000000000000	0.00000000000000	0.00000000000000	0.00000000000000	0.00000000000000	29.46145000000000	0.00000000000000	0.00000000000000	0.00000000000000	0.00000000000000	
23.19491400000000	42.44015700000000	762.89554099999998	53.96952400000000	0.35527200000000	0.00000000000000	0.08068600000000	0.00000000000000	0.00000000000000	0.00000000000000	0.00000000000000	0.00000000000000	0.00000000000000	0.00000000000000	29.61290100000000	0.00000000000000	0.00000000000000	0.00000000000000	0.00000000000000	
23.19658500000000	41.89426200000000	764.13901699999997	54.16089500000000	0.35456900000000	0.00000000000000	0.08069500000000	0.00000000000000	0.00000000000000	0.00000000000000	0.00000000000000	0.00000000000000	0.00000000000000	0.00000000000000	29.75733600000000	0.00000000000000	0.00000000000000	0.00000000000000	0.00000000000000	
23.19824600000000	41.35280000000000	765.29787099999999	54.33800500000000	0.35388800000000	0.00000000000000	0.08070100000000	0.00000000000000	0.00000000000000	0.00000000000000	0.00000000000000	0.00000000000000	0.00000000000000	0.00000000000000	29.89384000000000	0.00000000000000	0.00000000000000	0.00000000000000	0.00000000000000	
